<?xml version="1.0" encoding="utf-8"?>
<!-- Generator: Adobe Illustrator 16.0.0, SVG Export Plug-In . SVG Version: 6.00 Build 0)  -->
<!DOCTYPE svg PUBLIC "-//W3C//DTD SVG 1.1//EN" "http://www.w3.org/Graphics/SVG/1.1/DTD/svg11.dtd">
<svg version="1.1" id="Layer_1" xmlns="http://www.w3.org/2000/svg" xmlns:xlink="http://www.w3.org/1999/xlink" x="0px" y="0px"
	 width="22.1px" height="43.1px" viewBox="0 0 22.1 43.1" style="enable-background:new 0 0 22.1 43.1;" xml:space="preserve">
<g>
	<path d="M14.3,12.3v-1.7C14.3,7.6,12.8,6,11,6C9.1,6,7.6,7.4,7.6,9.3c0,1.8,0.4,3.2,2.1,5.2l7.5,8.6c3,3.4,4.9,5.7,4.9,10.7
		c0,6.1-5.1,9.4-11.1,9.4c-6.1,0-10.9-3.4-10.9-9.4v-4.4h7.6v3.9c0,2.6,1.4,3.8,3.4,3.8c1.9,0,3.4-1.4,3.4-3.8
		c0-2.2-0.9-3.9-2.5-5.7l-6.2-6.4c-4-4.7-5.6-6-5.6-11.8C0,3.7,4.6,0,11,0c6.4,0,10.9,3.8,10.9,9.4v2.9H14.3z"/>
</g>
</svg>
