<?xml version="1.0" encoding="UTF-8"?><!DOCTYPE svg PUBLIC "-//W3C//DTD SVG 1.1//EN" "http://www.w3.org/Graphics/SVG/1.1/DTD/svg11.dtd"><svg xmlns="http://www.w3.org/2000/svg"><symbol id="svg-arrow" viewBox="0 0 8.672 4.91"><path d="M6.217 4.91H4.992l2.02-2.02H0v-.87h7.014L4.992 0h1.225l2.455 2.455L6.217 4.91z"/></symbol><symbol id="svg-h" viewBox="0 0 22.9 42"><path d="M22.9 0v42h-7.5V22.3H7.5V42H0V0h7.5v16.3h7.9V0h7.5z"/></symbol><symbol id="svg-i" viewBox="0 0 7.5 42"><path d="M7.5 42H0V0h7.5v42z"/></symbol><symbol id="svg-m" viewBox="0 0 30 42"><path d="M30 0v42h-7.5V16.1L17.6 42h-5.2L7.6 16.1h-.1V42H0V0h10.1l4.8 25.1h.1L19.9 0H30z"/></symbol><symbol id="svg-o" viewBox="0 0 22.1 43.1"><path d="M22.1 9.4v24.2c0 4.3-3.4 9.5-10.9 9.5C2.9 43.1 0 37.9 0 33.6V9.4C0 5 2.9 0 11.2 0c7.5 0 10.9 5 10.9 9.4zm-7.5 0c0-1.3-1.2-3.5-3.4-3.5-2.6 0-3.7 2.3-3.7 3.4v24.2c0 1.4 1.1 3.6 3.7 3.6 2.2 0 3.4-2.3 3.4-3.6V9.4z"/></symbol><symbol id="svg-plus" viewBox="0 0 6.188 6.38"><path d="M3.682 0v2.614H6.19V3.74H3.68v2.64H2.506V3.742H0V2.614h2.506V0h1.176z"/></symbol><symbol id="svg-s" viewBox="0 0 22.1 43.1"><path d="M14.3 12.3v-1.7c0-3-1.5-4.6-3.3-4.6-1.9 0-3.4 1.4-3.4 3.3 0 1.8.4 3.2 2.1 5.2l7.5 8.6c3 3.4 4.9 5.7 4.9 10.7 0 6.1-5.1 9.4-11.1 9.4C4.9 43.2.1 39.8.1 33.8v-4.4h7.6v3.9c0 2.6 1.4 3.8 3.4 3.8 1.9 0 3.4-1.4 3.4-3.8 0-2.2-.9-3.9-2.5-5.7l-6.2-6.4c-4-4.7-5.6-6-5.6-11.8C0 3.7 4.6 0 11 0s10.9 3.8 10.9 9.4v2.9h-7.6z"/></symbol><symbol id="svg-t" viewBox="0 0 22.9 42"><path d="M22.9 5.9h-7.7V42H7.7V5.9H0V0h22.9v5.9z"/></symbol></svg>